<?xml version="1.0" encoding="UTF-8"?>
<svg id="Layer_5" data-name="Layer 5" xmlns="http://www.w3.org/2000/svg" viewBox="0 0 307.36 307.36">
  <defs>
    <style>
      .cls-1 {
        fill: #e9e9e9;
      }

      .cls-2 {
        fill: #c5c5c5;
      }

      .cls-3 {
        fill: #969696;
      }

      .cls-4 {
        fill: #d3d3d3;
      }

      .cls-5 {
        fill: #adadad;
      }

      .cls-6 {
        fill: #dcdcdc;
      }

      .cls-7 {
        fill: #c1c1c1;
      }

      .cls-8 {
        fill: #9a9a9a;
      }

      .cls-9 {
        fill: #c6c6c6;
      }

      .cls-10 {
        fill: #d0d0d0;
      }
    </style>
  </defs>
  <g id="Layer_4" data-name="Layer 4">
    <polygon class="cls-1" points="53.84 131.73 23.63 149.26 180.31 239.9 210.99 222.58 53.84 131.73"/>
    <polygon class="cls-5" points="23.63 149.26 23.63 196.5 179.97 286.37 180.31 239.9 23.63 149.26"/>
    <polygon class="cls-6" points="180.31 239.9 210.99 222.58 210.99 268.41 179.96 286.96 180.31 239.9"/>
  </g>
  <g id="Layer_3" data-name="Layer 3">
    <polygon class="cls-10" points="191.56 106.12 222.01 88.58 284.39 124.97 254.1 142.45 284.39 160.92 253.88 178.58 191.71 142.63 222.42 124.22 191.56 106.12"/>
    <polygon class="cls-7" points="253.88 178.58 253.42 225.65 284.27 207.73 284.39 160.92 253.88 178.58"/>
    <polygon class="cls-7" points="253.55 142.77 284.39 124.97 284.39 160.92 253.55 142.77"/>
    <polygon class="cls-3" points="191.56 106.12 191.71 142.63 222.42 124.22 191.56 106.12"/>
    <polygon class="cls-3" points="191.71 142.63 191.56 189.94 253.42 225.65 253.88 178.58 191.71 142.63"/>
  </g>
  <g id="Layer_2" data-name="Layer 2">
    <polygon class="cls-4" points="71.71 74.8 165.09 20.04 196.31 38.16 134.27 74.67 165.03 92.16 134.27 110.28 71.71 74.8"/>
    <polygon class="cls-8" points="71.71 121.26 134.01 157.77 134.27 110.28 71.71 74.8 71.71 121.26"/>
    <polygon class="cls-2" points="134.27 110.28 165.03 92.16 165.03 139.56 134.01 157.77 134.27 110.28"/>
    <polygon class="cls-9" points="134.27 74.67 196.31 38.16 196.31 84.75 165.03 102.94 165.03 92.16 134.27 74.67"/>
  </g>
</svg>