<?xml version="1.0" encoding="UTF-8"?>
<svg id="chunks" xmlns="http://www.w3.org/2000/svg" viewBox="0 0 307.36 307.36">
  <g id="logo-left-chunk">
    <polygon fill="#e9e9e9" points="53.84 131.73 23.63 149.26 180.31 239.9 210.99 222.58 53.84 131.73"/>
    <polygon fill="#adadad" points="23.63 149.26 23.63 196.5 179.97 286.37 180.31 239.9 23.63 149.26"/>
    <polygon fill="#dcdcdc" points="180.31 239.9 210.99 222.58 210.99 268.41 179.96 286.96 180.31 239.9"/>
  </g>
  <g id="logo-right-chunk">
    <polygon fill="#D0D0D0" points="191.56 106.12 222.01 88.58 284.39 124.97 254.1 142.45 284.39 160.92 253.88 178.58 191.71 142.63 222.42 124.22 191.56 106.12"/>
    <polygon fill="#969696" points="191.56 106.12 191.71 142.63 222.42 124.22 191.56 106.12"/>
    <polygon fill="#979797" points="191.71 142.63 253.88 178.58 253.88 225.56 191.56 189.6 191.71 142.63"/>
    <polygon fill="#c1c1c1" points="254.1 142.45 284.39 124.97 284.39 160.92 254.1 142.45"/>
    <polygon fill="#c1c1c1"  points="253.88 178.58 284.39 160.92 284.39 207.94 253.88 225.56 253.88 178.58"/>
  </g>
  <g id="logo-top-chunk">
    <polygon fill="#d3d3d3" points="71.71 74.8 165.09 20.04 196.31 38.16 134.27 74.67 165.03 92.16 134.27 110.28 71.71 74.8"/>
    <polygon fill="#9a9a9a" points="71.71 121.26 134.01 157.77 134.27 110.28 71.71 74.8 71.71 121.26"/>
    <polygon fill="#c5c5c5" points="134.27 110.28 165.03 92.16 165.03 139.56 134.01 157.77 134.27 110.28"/>
    <polygon fill="#c6c6c6" points="134.27 74.67 196.31 38.16 196.31 84.75 165.03 102.94 165.03 92.16 134.27 74.67"/>
  </g>
</svg>