<svg width="48" height="48" viewBox="0 0 48 48" fill="none" xmlns="http://www.w3.org/2000/svg">
<path d="M10 8H32M10 8L14 12M10 8L14 4M32 8L28 4M32 8L28 12M22 43C17.274 41.233 13.333 35.185 11.36 31.643C10.508 30.113 10.957 28.235 12.324 27.141C13.06 26.5525 13.9871 26.256 14.9281 26.3082C15.869 26.3604 16.7576 26.7577 17.424 27.424L19 29V17.5C19 16.837 19.2634 16.2011 19.7322 15.7322C20.2011 15.2634 20.837 15 21.5 15C22.163 15 22.7989 15.2634 23.2678 15.7322C23.7366 16.2011 24 16.837 24 17.5V23.5C24 22.837 24.2634 22.2011 24.7322 21.7322C25.2011 21.2634 25.837 21 26.5 21C27.163 21 27.7989 21.2634 28.2678 21.7322C28.7366 22.2011 29 22.837 29 23.5V25.5C29 24.837 29.2634 24.2011 29.7322 23.7322C30.2011 23.2634 30.837 23 31.5 23C32.163 23 32.7989 23.2634 33.2678 23.7322C33.7366 24.2011 34 24.837 34 25.5V27.5C34 26.837 34.2634 26.2011 34.7322 25.7322C35.2011 25.2634 35.837 25 36.5 25C37.163 25 37.7989 25.2634 38.2678 25.7322C38.7366 26.2011 39 26.837 39 27.5V35.368C39 36.438 38.735 37.496 38.118 38.371C37.095 39.82 35.256 42.034 33 43C29.5 44.5 26.37 44.634 22 43Z" stroke="black" stroke-width="4" stroke-linecap="round" stroke-linejoin="round"/>
</svg>
