<svg width="24" height="24" viewBox="0 0 24 24" fill="none" xmlns="http://www.w3.org/2000/svg">
<path d="M12 2C6.5 2 2 6.5 2 12V22H22V12C22 6.5 17.5 2 12 2ZM12 4C14.9 4 17.44 5.56 18.84 7.88C18.41 7.95 17.96 8 17.5 8C14.6 8 12.06 6.44 10.66 4.12C11.09 4.05 11.54 4 12 4ZM8.08 5.03C7.44867 6.91037 6.14534 8.49146 4.42 9.47C5.05133 7.58963 6.35466 6.00854 8.08 5.03ZM4 11.86C6.6 10.88 8.69 8.87 9.74 6.31C10.6779 7.46312 11.8611 8.39266 13.2035 9.03097C14.5458 9.66928 16.0136 10.0003 17.5 10C18.25 10 18.97 9.91 19.67 9.76C19.88 10.47 20 11.22 20 12C20 16.41 16.41 20 12 20C7.59 20 4 16.41 4 12V11.86ZM4 20V18C4.57 18.75 5.25 19.43 6 20H4ZM20 20H18C18.75 19.43 19.43 18.75 20 18V20ZM13.75 13C13.75 12.6685 13.8817 12.3505 14.1161 12.1161C14.3505 11.8817 14.6685 11.75 15 11.75C15.3315 11.75 15.6495 11.8817 15.8839 12.1161C16.1183 12.3505 16.25 12.6685 16.25 13C16.25 13.3315 16.1183 13.6495 15.8839 13.8839C15.6495 14.1183 15.3315 14.25 15 14.25C14.6685 14.25 14.3505 14.1183 14.1161 13.8839C13.8817 13.6495 13.75 13.3315 13.75 13ZM7.75 13C7.75 12.6685 7.8817 12.3505 8.11612 12.1161C8.35054 11.8817 8.66848 11.75 9 11.75C9.33152 11.75 9.64946 11.8817 9.88388 12.1161C10.1183 12.3505 10.25 12.6685 10.25 13C10.25 13.3315 10.1183 13.6495 9.88388 13.8839C9.64946 14.1183 9.33152 14.25 9 14.25C8.66848 14.25 8.35054 14.1183 8.11612 13.8839C7.8817 13.6495 7.75 13.3315 7.75 13Z" fill="black"/>
</svg>
