<svg width="24" height="24" viewBox="0 0 24 24" fill="none" xmlns="http://www.w3.org/2000/svg">
<g clip-path="url(#clip0_652_555)">
<path d="M16.9991 4C18.1051 4 18.9541 4.843 19.5831 5.75L19.7961 6.071L19.9911 6.391C20.0531 6.495 20.1121 6.599 20.1691 6.699C20.9561 8.106 21.6411 9.943 22.0941 11.758C22.5441 13.559 22.7931 15.44 22.6341 16.919C22.4741 18.404 21.7091 20 19.9991 20C18.4651 20 17.2561 19.18 16.2741 18.379L15.1641 17.448C14.2411 16.692 13.2311 16 11.9991 16C10.7671 16 9.75615 16.692 8.83515 17.448L7.72515 18.378C6.74115 19.18 5.53215 20 3.99915 20C2.28815 20 1.52315 18.404 1.36415 16.919C1.20615 15.439 1.45415 13.559 1.90415 11.758C2.35715 9.943 3.04215 8.106 3.82915 6.699L4.00715 6.39L4.20215 6.071L4.41515 5.75C5.04415 4.843 5.89315 4 6.99915 4C7.50915 4 8.01615 4.124 8.51415 4.27L9.10715 4.452C9.20515 4.482 9.30215 4.511 9.39915 4.538C10.2641 4.786 11.1491 5 11.9991 5C12.8491 5 13.7341 4.786 14.5991 4.538L15.4841 4.271C15.9821 4.124 16.4891 4 16.9991 4ZM8.49915 8C7.83611 8 7.20022 8.26339 6.73138 8.73223C6.26254 9.20107 5.99915 9.83696 5.99915 10.5C5.99915 11.163 6.26254 11.7989 6.73138 12.2678C7.20022 12.7366 7.83611 13 8.49915 13C9.16219 13 9.79807 12.7366 10.2669 12.2678C10.7358 11.7989 10.9991 11.163 10.9991 10.5C10.9991 9.83696 10.7358 9.20107 10.2669 8.73223C9.79807 8.26339 9.16219 8 8.49915 8ZM15.4991 8C15.2339 8 14.9796 8.10536 14.792 8.29289C14.6045 8.48043 14.4991 8.73478 14.4991 9V9.5H13.9991C13.7339 9.5 13.4796 9.60536 13.292 9.79289C13.1045 9.98043 12.9991 10.2348 12.9991 10.5C12.9991 10.7652 13.1045 11.0196 13.292 11.2071C13.4796 11.3946 13.7339 11.5 13.9991 11.5H14.4991V12C14.4991 12.2652 14.6045 12.5196 14.792 12.7071C14.9796 12.8946 15.2339 13 15.4991 13C15.7644 13 16.0187 12.8946 16.2063 12.7071C16.3938 12.5196 16.4991 12.2652 16.4991 12V11.5H16.9991C17.2644 11.5 17.5187 11.3946 17.7063 11.2071C17.8938 11.0196 17.9991 10.7652 17.9991 10.5C17.9991 10.2348 17.8938 9.98043 17.7063 9.79289C17.5187 9.60536 17.2644 9.5 16.9991 9.5H16.4991V9C16.4991 8.73478 16.3938 8.48043 16.2063 8.29289C16.0187 8.10536 15.7644 8 15.4991 8ZM8.49915 10C8.63176 10 8.75893 10.0527 8.8527 10.1464C8.94647 10.2402 8.99915 10.3674 8.99915 10.5C8.99915 10.6326 8.94647 10.7598 8.8527 10.8536C8.75893 10.9473 8.63176 11 8.49915 11C8.36654 11 8.23936 10.9473 8.14559 10.8536C8.05183 10.7598 7.99915 10.6326 7.99915 10.5C7.99915 10.3674 8.05183 10.2402 8.14559 10.1464C8.23936 10.0527 8.36654 10 8.49915 10Z" fill="black"/>
</g>
<defs>
<clipPath id="clip0_652_555">
<rect width="24" height="24" fill="white"/>
</clipPath>
</defs>
</svg>
