<svg width="683" height="683" viewBox="0 0 683 683" fill="none" xmlns="http://www.w3.org/2000/svg">
<path d="M407.107 37.7214C400.974 41.8547 397.374 48.7881 398.441 54.6547C398.974 57.0547 401.641 62.9214 404.574 67.4547C421.907 95.0547 429.241 125.721 425.907 157.855C423.241 184.921 412.841 217.721 406.307 220.121C396.841 223.721 342.441 236.388 340.974 235.321C312.307 214.521 285.374 201.721 252.174 193.588C227.907 187.455 212.041 185.455 184.441 184.655C161.907 183.988 159.374 184.121 155.241 186.388C146.974 191.055 143.641 201.455 147.774 209.455C151.507 216.788 155.774 218.788 166.974 218.788C180.041 218.788 210.707 221.055 221.774 222.921C246.307 227.055 268.441 234.121 289.774 244.788C304.174 251.988 324.574 266.121 326.974 270.388C327.641 271.721 329.374 280.921 330.974 290.788C339.774 349.588 339.374 403.055 329.641 455.721C327.107 468.921 326.441 470.788 324.174 470.788C322.707 470.788 301.907 467.188 277.907 462.788C226.707 453.455 224.574 453.455 214.174 464.388C208.841 469.855 207.107 474.521 207.107 482.921C207.107 493.588 212.574 502.655 221.774 507.455C225.641 509.455 340.574 530.788 347.241 530.788C353.641 530.655 361.774 526.655 366.707 521.055C373.774 513.055 382.174 481.988 387.241 444.788C388.707 433.721 390.174 422.788 390.574 420.388L391.241 415.988L398.841 416.788C412.974 418.388 413.641 418.655 414.441 423.188C415.374 429.455 417.774 461.988 417.241 462.521C416.974 462.788 411.507 461.055 405.107 458.788C398.574 456.521 393.241 454.921 393.107 455.055C392.841 455.321 391.374 461.855 389.907 469.588C388.307 477.321 385.507 489.321 383.641 496.121C381.907 502.921 380.574 508.655 380.707 508.788C380.974 508.921 393.774 513.455 409.107 518.921C433.774 527.588 438.307 528.788 446.574 528.788C458.707 528.788 465.107 524.921 470.307 514.655C473.374 508.388 473.774 505.988 473.774 493.588C473.774 448.788 466.707 383.055 455.641 322.121C451.374 298.921 439.374 242.655 438.441 241.721C438.174 241.455 440.307 235.988 443.107 229.588C455.107 201.855 460.307 179.188 461.374 149.988C462.307 125.321 460.174 109.055 453.641 88.9214C448.574 73.5881 436.041 49.3214 429.107 41.7214C424.707 36.7881 422.841 35.7214 417.774 35.1881C412.974 34.6547 410.841 35.1881 407.107 37.7214Z" fill="white"/>
<path d="M338.041 121.321C318.175 128.654 304.441 148.254 304.441 168.921C304.441 183.321 313.775 200.387 326.308 209.054C340.175 218.521 360.308 220.121 375.375 212.921C385.375 208.121 396.575 196.121 400.441 185.854C404.308 175.454 404.308 160.787 400.441 150.254C396.441 139.587 385.641 128.254 374.841 123.454C363.641 118.387 348.441 117.454 338.041 121.321Z" fill="white"/>
<path d="M314.44 435.988C307.507 439.055 300.973 446.655 299.107 453.588C298.307 456.655 297.773 459.188 298.04 459.321C298.707 459.988 320.84 464.121 321.24 463.721C321.373 463.588 322.707 456.655 324.173 448.388L326.707 433.455H323.24C321.373 433.455 317.373 434.655 314.44 435.988Z" fill="white"/>
<path d="M372 603C372 666.018 372.6 675 376.5 675C380.4 675 381 666.018 381 603C381 539.982 380.4 531 376.5 531C372.6 531 372 539.982 372 603Z" fill="white"/>
<path d="M341 592.5C341 637.575 341.6 644 345.5 644C349.4 644 350 637.575 350 592.5C350 547.425 349.4 541 345.5 541C341.6 541 341 547.425 341 592.5Z" fill="white"/>
<path d="M401 582C401 629.263 401.6 636 405.5 636C409.4 636 410 629.263 410 582C410 534.737 409.4 528 405.5 528C401.6 528 401 534.737 401 582Z" fill="white"/>
</svg>
