<svg width="24" height="24" viewBox="0 0 24 24" fill="none" xmlns="http://www.w3.org/2000/svg">
<path d="M7.904 17.563C7.95718 17.8019 8.08215 18.0189 8.26214 18.1847C8.44214 18.3506 8.66855 18.4574 8.91101 18.491C9.15347 18.5245 9.40037 18.4831 9.61862 18.3722C9.83686 18.2614 10.016 18.0865 10.132 17.871L12.222 14.778L17.129 19.685C17.2281 19.7841 17.3457 19.8627 17.4752 19.9163C17.6046 19.9699 17.7434 19.9975 17.8835 19.9975C18.0236 19.9975 18.1624 19.9699 18.2918 19.9163C18.4213 19.8627 18.5389 19.7841 18.638 19.685L19.685 18.638C19.7841 18.5389 19.8627 18.4213 19.9163 18.2918C19.9699 18.1624 19.9975 18.0236 19.9975 17.8835C19.9975 17.7434 19.9699 17.6046 19.9163 17.4752C19.8627 17.3457 19.7841 17.2281 19.685 17.129L14.778 12.222L17.891 10.132C18.1065 10.0159 18.2814 9.8367 18.3921 9.61839C18.5029 9.40008 18.5442 9.15312 18.5106 8.91064C18.477 8.66816 18.37 8.44177 18.204 8.26184C18.038 8.08191 17.821 7.95704 17.582 7.904L4 4L7.904 17.563Z" stroke="black" stroke-width="2" stroke-linecap="round" stroke-linejoin="round"/>
</svg>
